<?xml version="1.0" standalone="no"?>
<!DOCTYPE svg PUBLIC "-//W3C//DTD SVG 20010904//EN"
 "http://www.w3.org/TR/2001/REC-SVG-20010904/DTD/svg10.dtd">
<svg version="1.0" xmlns="http://www.w3.org/2000/svg"
 width="500.000000pt" height="500.000000pt" viewBox="0 0 500.000000 500.000000"
 preserveAspectRatio="xMidYMid meet">

<g transform="translate(0.000000,500.000000) scale(0.100000,-0.100000)"
fill="#000000" stroke="none">
<path d="M2650 3477 c-21 -11 -25 -21 -28 -64 -3 -49 -1 -53 27 -67 40 -21
162 -21 201 -1 28 14 30 20 30 69 0 52 -1 55 -31 65 -43 15 -168 14 -199 -2z
m175 -37 c-3 -5 -37 -10 -75 -10 -38 0 -72 5 -75 10 -4 6 23 10 75 10 52 0 79
-4 75 -10z m12 -55 c-2 -6 -40 -10 -87 -10 -47 0 -85 4 -87 10 -2 6 31 10 87
10 56 0 89 -4 87 -10z"/>
<path d="M2300 3469 c0 -5 -13 -15 -29 -20 -30 -11 -46 -33 -35 -50 7 -12 34
-11 34 1 0 6 11 10 23 10 16 0 28 9 35 25 17 36 15 45 -8 45 -11 0 -20 -5 -20
-11z"/>
<path d="M1953 3430 c-32 -13 -56 -66 -49 -109 7 -46 107 -145 137 -136 11 4
19 12 17 18 -1 7 8 31 20 54 24 46 28 109 9 133 -35 45 -85 60 -134 40z m82
-54 c18 -18 23 -32 19 -52 -12 -66 -40 -81 -81 -42 -35 32 -31 96 7 111 25 9
30 8 55 -17z"/>
<path d="M2312 3281 c-93 -37 -161 -90 -223 -171 -71 -94 -101 -175 -107 -285
l-5 -90 -59 -54 c-65 -59 -139 -158 -157 -210 -30 -90 5 -148 100 -165 42 -7
166 15 249 44 l57 20 51 -34 c82 -55 171 -80 282 -80 108 0 171 17 261 70 70
41 154 131 196 209 l31 59 8 -39 c4 -21 7 -47 8 -58 2 -30 32 -46 48 -25 7 8
26 19 41 22 15 4 45 22 65 41 33 29 37 39 37 80 0 39 -5 51 -28 71 -39 34 -73
40 -113 21 l-34 -17 0 88 0 87 90 92 c49 50 100 114 114 142 30 58 34 120 10
156 -42 64 -185 60 -362 -10 l-62 -25 -62 31 c-95 48 -143 59 -258 59 -92 -1
-114 -4 -178 -29z m68 -53 c-17 -18 -45 -63 -62 -100 -25 -52 -35 -64 -47 -58
-9 4 -38 18 -65 31 l-49 23 46 42 c46 41 99 72 139 79 11 3 23 7 26 10 3 3 14
5 24 5 16 0 14 -5 -12 -32z m281 12 c14 -4 37 -14 50 -21 13 -7 29 -14 34 -14
6 -1 9 -7 7 -14 -1 -7 2 -10 8 -6 5 3 25 -8 44 -26 43 -39 38 -46 -65 -87 -28
-11 -49 0 -49 24 0 18 -39 88 -66 120 -28 32 -31 49 -6 39 9 -4 29 -11 43 -15z
m519 7 c58 -29 26 -133 -72 -237 -187 -199 -610 -463 -963 -603 -344 -136
-464 -36 -239 201 70 75 73 76 82 53 7 -21 3 -30 -30 -65 -55 -56 -73 -93 -59
-122 8 -19 19 -24 45 -24 54 0 196 55 376 145 358 178 689 411 757 532 20 36
21 41 7 61 -19 28 -61 29 -148 2 -64 -20 -93 -20 -80 1 15 25 170 68 244 68
30 1 66 -5 80 -12z m-608 -50 c30 -30 47 -55 44 -64 -3 -8 -2 -12 3 -9 4 3 15
-12 24 -34 8 -22 11 -38 6 -35 -5 4 -9 1 -9 -5 0 -16 -290 -12 -296 5 -6 16
49 119 81 151 14 14 30 22 37 18 6 -4 8 -3 4 4 -6 10 12 18 43 18 7 1 36 -22
63 -49z m478 -36 c0 -21 -75 -100 -95 -101 -10 0 -59 69 -53 75 7 7 105 34
126 34 12 1 22 -3 22 -8z m-140 -124 c0 -11 -66 -73 -121 -114 l-44 -32 -12
62 c-6 34 -10 62 -10 62 1 0 27 11 57 24 30 13 63 24 72 24 9 1 16 4 16 7 -2
21 5 21 22 0 11 -14 20 -29 20 -33z m-698 -1 c11 10 58 -20 58 -38 0 -17 -2
-17 -27 -4 -16 8 -44 29 -63 46 -33 30 -34 31 -4 11 17 -11 34 -18 36 -15z
m325 -44 l143 3 0 -32 c0 -18 -3 -33 -7 -33 -5 0 -37 -5 -72 -11 -46 -7 -86
-7 -140 2 -105 15 -141 32 -141 63 0 23 2 24 37 14 21 -6 101 -8 180 -6z m439
-263 c-7 -50 -43 -159 -56 -169 -3 -3 -9 -12 -12 -21 -7 -19 -99 -41 -156 -38
-33 2 -39 6 -33 18 5 9 14 46 21 82 l12 67 67 45 c74 51 104 65 140 66 23 1
23 -1 17 -50z m-293 -163 c-21 -74 -36 -81 -140 -70 l-78 9 75 39 c41 21 86
46 100 56 24 16 52 29 57 26 2 -1 -5 -28 -14 -60z m-651 -13 l16 -38 -42 -12
c-52 -16 -66 -16 -66 0 0 14 57 87 68 87 4 0 15 -17 24 -37z m417 -103 c18 -5
67 -10 107 -11 41 -1 74 -6 74 -10 0 -5 -4 -9 -10 -9 -5 0 -9 -3 -8 -7 4 -14
-23 -54 -33 -48 -5 4 -9 -1 -9 -10 0 -9 -4 -13 -10 -10 -5 3 -10 2 -10 -4 0
-17 -34 -29 -64 -24 -30 6 -126 95 -126 118 0 27 30 32 89 15z m376 -20 c-15
-16 -32 -27 -37 -24 -4 3 -8 -1 -8 -9 0 -8 -12 -20 -27 -26 -16 -7 -39 -18
-53 -25 -38 -21 -70 -29 -70 -17 0 6 14 32 30 58 29 46 34 49 93 59 103 19
105 19 72 -16z m-442 -102 c34 -32 30 -34 -21 -12 -20 10 -45 18 -55 20 -9 2
-33 14 -52 26 l-34 23 42 21 42 22 24 -37 c14 -20 38 -48 54 -63z"/>
<path d="M1781 3114 c-26 -21 -31 -33 -31 -69 0 -55 25 -86 90 -114 28 -12 50
-28 50 -36 0 -17 9 -19 30 -5 16 10 23 53 24 143 1 52 -2 61 -27 83 -39 33
-95 33 -136 -2z m104 -38 c20 -20 23 -31 18 -63 -8 -54 -17 -59 -59 -37 -60
32 -72 87 -24 111 34 17 37 17 65 -11z"/>
<path d="M3214 2905 c-4 -8 -14 -15 -24 -15 -22 0 -53 -28 -45 -40 3 -5 22 -8
42 -6 36 3 72 35 73 64 0 17 -39 15 -46 -3z"/>
<path d="M1768 2780 c-7 -11 -20 -20 -29 -20 -9 0 -23 -8 -33 -19 -14 -16 -15
-20 -2 -30 10 -9 16 -9 21 -1 4 7 15 10 25 7 21 -5 31 1 48 30 16 30 15 40 -3
47 -9 3 -20 -3 -27 -14z"/>
<path d="M2460 2023 c-34 -13 -50 -37 -50 -74 0 -43 22 -64 78 -75 64 -13 68
-60 3 -51 -20 3 -46 8 -58 12 -16 5 -24 2 -32 -14 -10 -18 -7 -22 21 -37 17
-9 54 -16 82 -16 42 0 54 4 73 26 13 15 23 36 23 48 0 26 -55 78 -84 78 -24 1
-56 22 -56 38 0 18 40 24 71 11 26 -10 33 -10 47 5 14 14 15 18 1 31 -16 16
-95 28 -119 18z"/>
<path d="M1220 1895 l0 -125 80 -1 c44 -1 86 -2 93 -3 6 -1 12 10 12 24 0 24
-3 25 -62 28 -59 3 -63 4 -63 27 0 24 3 25 55 25 52 0 55 1 55 25 0 24 -3 25
-55 25 -54 0 -55 0 -55 30 l0 30 60 0 c53 0 60 2 60 20 0 19 -7 20 -90 20
l-90 0 0 -125z"/>
<path d="M1470 1898 c47 -122 48 -123 80 -123 32 0 33 1 76 110 24 61 44 116
44 123 0 7 -12 12 -29 12 -22 0 -30 -6 -34 -22 -3 -13 -15 -52 -28 -87 -27
-74 -32 -71 -69 38 -23 68 -25 71 -56 71 l-32 0 48 -122z"/>
<path d="M1700 1895 l0 -125 96 0 c93 0 95 1 92 23 -3 20 -9 22 -70 25 -65 3
-68 4 -68 27 0 24 3 25 60 25 57 0 60 1 60 25 0 24 -3 25 -61 25 -60 0 -60 0
-57 28 3 26 5 27 71 30 59 3 67 5 67 22 0 18 -7 20 -95 20 l-95 0 0 -125z"/>
<path d="M1930 1895 l0 -125 25 0 c23 0 24 3 27 78 l3 77 63 -83 c50 -65 69
-82 85 -80 21 3 22 8 25 131 l3 127 -31 0 -30 0 0 -70 c0 -38 -3 -70 -7 -70
-5 1 -32 32 -62 70 -40 52 -60 70 -77 70 -24 0 -24 0 -24 -125z"/>
<path d="M2180 2001 c0 -16 8 -20 38 -23 l37 -3 2 -104 c1 -57 3 -105 5 -107
2 -2 14 -1 26 2 20 6 22 13 24 108 l3 101 38 3 c29 3 37 7 37 23 0 18 -8 19
-105 19 -97 0 -105 -1 -105 -19z"/>
<path d="M2630 1895 l0 -125 30 0 c27 0 30 3 30 34 0 33 1 34 48 41 56 8 77
22 92 60 12 33 5 62 -23 93 -18 19 -30 22 -99 22 l-78 0 0 -125z m125 73 c50
-23 23 -78 -39 -78 -24 0 -26 3 -26 45 0 50 14 57 65 33z"/>
<path d="M2870 1895 l0 -125 24 0 c23 0 25 5 28 48 l3 47 52 3 52 3 3 -53 c3
-54 4 -55 48 -49 6 1 10 50 10 126 l0 125 -30 0 c-29 0 -30 -1 -30 -50 l0 -50
-55 0 -55 0 0 50 c0 47 -2 50 -25 50 l-25 0 0 -125z"/>
<path d="M3130 1895 l0 -125 95 0 c95 0 95 0 95 25 0 24 -2 25 -65 25 -63 0
-65 1 -65 25 0 24 3 25 55 25 52 0 55 1 55 25 0 24 -3 25 -56 25 -54 0 -55 0
-52 28 3 26 6 27 66 30 54 3 62 6 62 22 0 18 -7 20 -95 20 l-95 0 0 -125z"/>
<path d="M3360 1895 l0 -125 30 0 c28 0 30 2 30 40 0 32 4 40 19 40 10 0 30
-17 45 -40 26 -39 35 -45 66 -40 24 3 24 7 -5 45 l-28 36 24 25 c33 35 33 99
0 125 -18 15 -40 19 -102 19 l-79 0 0 -125z m131 75 c29 -16 25 -58 -7 -71
-44 -16 -64 -3 -64 42 0 35 2 39 26 39 14 0 34 -5 45 -10z"/>
<path d="M3610 1895 l0 -125 95 0 c95 0 95 0 95 25 0 24 -2 25 -70 25 -68 0
-70 1 -70 25 0 22 4 24 58 27 50 3 57 6 60 26 3 21 0 22 -58 22 -61 0 -61 0
-58 28 3 26 5 27 71 30 59 3 67 5 67 22 0 18 -7 20 -95 20 l-95 0 0 -125z"/>
<path d="M1233 1653 c9 -2 23 -2 30 0 6 3 -1 5 -18 5 -16 0 -22 -2 -12 -5z"/>
<path d="M1286 1647 c3 -10 9 -15 12 -12 3 3 0 11 -7 18 -10 9 -11 8 -5 -6z"/>
<path d="M1360 1625 c0 -30 3 -35 23 -34 16 1 18 2 5 6 -10 2 -18 8 -18 13 0
5 8 11 18 13 16 4 16 5 0 6 -10 0 -18 5 -18 10 0 5 8 12 18 14 13 4 11 5 -5 6
-20 1 -23 -4 -23 -34z"/>
<path d="M1430 1644 c0 -8 5 -12 10 -9 6 4 8 11 5 16 -9 14 -15 11 -15 -7z"/>
<path d="M1481 1643 c0 -13 -6 -23 -13 -23 -9 0 -9 -3 0 -12 16 -16 24 -5 19
29 -3 21 -4 23 -6 6z"/>
<path d="M1513 1653 c9 -2 23 -2 30 0 6 3 -1 5 -18 5 -16 0 -22 -2 -12 -5z"/>
<path d="M1601 1630 c0 -28 2 -31 9 -15 7 19 8 19 15 2 7 -17 9 -17 26 2 11
11 19 26 19 33 0 7 -9 2 -19 -11 l-18 -24 -17 24 -16 23 1 -34z"/>
<path d="M1771 1628 c1 -25 3 -27 6 -10 4 20 7 21 21 10 12 -9 12 -6 -2 10
-25 29 -26 28 -25 -10z"/>
<path d="M1870 1649 c0 -5 5 -7 10 -4 6 3 10 8 10 11 0 2 -4 4 -10 4 -5 0 -10
-5 -10 -11z"/>
<path d="M1958 1653 c7 -3 16 -2 19 1 4 3 -2 6 -13 5 -11 0 -14 -3 -6 -6z"/>
<path d="M2010 1625 c0 -30 3 -35 23 -34 16 1 18 2 5 6 -27 7 -23 51 5 56 19
4 18 4 -5 6 -26 1 -28 -2 -28 -34z"/>
<path d="M2172 1628 c2 -23 8 -33 21 -34 10 -1 11 0 3 3 -22 7 -17 51 8 56 16
3 14 5 -7 6 -26 1 -28 -2 -25 -31z"/>
<path d="M2241 1628 c1 -19 3 -25 6 -15 5 18 5 18 26 0 18 -16 17 -14 -3 15
-13 17 -25 32 -27 32 -2 0 -2 -15 -2 -32z"/>
<path d="M2319 1651 c12 -8 51 -4 51 5 0 2 -15 4 -32 4 -23 0 -29 -3 -19 -9z"/>
<path d="M2410 1628 c0 -18 4 -28 8 -22 4 7 16 14 27 17 18 4 18 5 -2 6 -13 0
-23 5 -23 10 0 5 10 12 23 14 19 4 18 4 -5 6 -25 1 -28 -2 -28 -31z"/>
<path d="M2480 1633 c0 -23 5 -28 23 -28 13 0 24 5 24 11 0 6 -9 9 -19 6 -12
-3 -18 1 -18 11 0 9 8 18 18 20 13 4 11 5 -5 6 -19 1 -23 -4 -23 -26z"/>
<path d="M2552 1628 c2 -27 8 -33 28 -35 22 -2 23 -2 5 6 -26 10 -26 44 0 53
16 5 15 6 -8 7 -26 1 -28 -2 -25 -31z"/>
<path d="M2621 1638 c1 -16 3 -18 6 -6 2 9 14 19 26 21 18 4 17 5 -5 6 -23 1
-28 -3 -27 -21z"/>
<path d="M2692 1628 c-2 -34 1 -38 21 -37 15 1 17 3 5 6 -10 2 -18 17 -21 36
-4 31 -4 31 -5 -5z"/>
<path d="M2831 1630 c0 -33 1 -34 10 -11 6 16 6 28 -1 35 -7 7 -10 -1 -9 -24z"/>
<path d="M2910 1645 c-9 -11 -10 -19 -3 -26 8 -8 11 -6 10 7 -1 11 7 20 23 25
22 6 23 7 4 8 -12 1 -27 -6 -34 -14z"/>
<path d="M2992 1630 c0 -19 2 -27 5 -17 2 9 2 25 0 35 -3 9 -5 1 -5 -18z"/>
<path d="M3020 1631 c0 -17 2 -31 4 -31 8 0 13 51 5 56 -5 3 -9 -9 -9 -25z"/>
<path d="M3128 1653 c7 -3 16 -2 19 1 4 3 -2 6 -13 5 -11 0 -14 -3 -6 -6z"/>
<path d="M3210 1631 c0 -24 3 -28 20 -24 30 8 47 32 29 44 -29 18 -49 10 -49
-20z m43 4 c1 -5 -6 -11 -15 -13 -11 -2 -18 3 -18 13 0 17 30 18 33 0z"/>
<path d="M3376 1647 c3 -10 9 -15 12 -12 3 3 0 11 -7 18 -10 9 -11 8 -5 -6z"/>
<path d="M3416 1652 c7 -4 14 -18 17 -32 l4 -25 2 27 c0 14 7 29 14 31 6 3 -1
6 -18 6 -16 0 -25 -3 -19 -7z"/>
<path d="M3480 1628 c0 -18 4 -28 8 -22 4 6 14 14 22 17 12 4 11 6 -2 6 -26 1
-22 19 5 24 19 4 18 4 -5 6 -25 1 -28 -2 -28 -31z"/>
<path d="M3556 1652 c-2 -4 8 -8 22 -7 20 0 27 -5 25 -19 -1 -13 2 -15 10 -7
7 7 6 15 -3 26 -13 16 -45 20 -54 7z"/>
<path d="M3630 1651 c0 -23 14 -41 30 -41 19 0 34 25 24 41 -7 12 -54 12 -54
0z m48 -13 c-3 -7 -11 -13 -18 -13 -7 0 -15 6 -17 13 -3 7 4 12 17 12 13 0 20
-5 18 -12z"/>
<path d="M3711 1630 c0 -28 2 -31 9 -15 7 19 8 19 15 2 7 -17 9 -17 27 3 11
11 18 26 15 33 -2 7 -9 2 -17 -12 l-12 -24 -19 24 -19 24 1 -35z"/>
<path d="M1325 1639 c-4 -6 -5 -12 -2 -15 2 -3 7 2 10 11 7 17 1 20 -8 4z"/>
<path d="M1927 1637 c-3 -8 -2 -20 3 -26 5 -9 8 -4 8 13 0 29 -3 32 -11 13z"/>
<path d="M2080 1640 c0 -5 5 -10 11 -10 5 0 7 5 4 10 -3 6 -8 10 -11 10 -2 0
-4 -4 -4 -10z"/>
<path d="M2118 1629 c-19 -20 -22 -29 -10 -29 4 0 15 12 25 25 21 29 10 32
-15 4z"/>
<path d="M2780 1643 c5 -2 10 -11 10 -18 0 -8 4 -17 10 -20 6 -4 7 2 1 16 -4
13 -13 24 -20 25 -6 1 -7 0 -1 -3z"/>
<path d="M3068 1625 c-3 -14 -1 -25 3 -25 5 0 9 11 9 25 0 14 -2 25 -4 25 -2
0 -6 -11 -8 -25z"/>
<path d="M3101 1634 c-1 -26 23 -48 44 -40 16 6 21 36 5 36 -5 0 -7 -7 -3 -16
4 -12 1 -15 -13 -12 -10 1 -21 14 -25 28 -6 22 -7 23 -8 4z"/>
<path d="M1220 1629 c0 -5 9 -9 20 -9 11 0 20 2 20 4 0 2 -9 6 -20 9 -11 3
-20 1 -20 -4z"/>
<path d="M1730 1625 c0 -8 4 -15 10 -15 5 0 7 7 4 15 -4 8 -8 15 -10 15 -2 0
-4 -7 -4 -15z"/>
<path d="M1890 1629 c0 -6 -6 -9 -14 -6 -8 3 -16 0 -19 -6 -3 -7 6 -12 23 -12
21 0 26 4 22 18 -5 19 -12 23 -12 6z"/>
<path d="M3357 1633 c-10 -9 -9 -23 1 -23 5 0 9 7 9 15 0 17 -1 18 -10 8z"/>
<path d="M1696 1613 c-6 -14 -5 -15 5 -6 7 7 10 15 7 18 -3 3 -9 -2 -12 -12z"/>
<path d="M2756 1615 c-9 -26 -7 -32 5 -12 6 10 9 21 6 23 -2 3 -7 -2 -11 -11z"/>
<path d="M1300 1610 c0 -5 5 -10 11 -10 5 0 7 5 4 10 -3 6 -8 10 -11 10 -2 0
-4 -4 -4 -10z"/>
<path d="M1220 1599 c0 -5 11 -9 25 -9 14 0 25 2 25 4 0 2 -11 6 -25 8 -14 3
-25 1 -25 -3z"/>
<path d="M2638 1593 c7 -3 16 -2 19 1 4 3 -2 6 -13 5 -11 0 -14 -3 -6 -6z"/>
<path d="M2938 1593 c7 -3 16 -2 19 1 4 3 -2 6 -13 5 -11 0 -14 -3 -6 -6z"/>
<path d="M3298 1593 c6 -2 18 -2 25 0 6 3 1 5 -13 5 -14 0 -19 -2 -12 -5z"/>
<path d="M3578 1593 c7 -3 16 -2 19 1 4 3 -2 6 -13 5 -11 0 -14 -3 -6 -6z"/>
</g>
</svg>
